:FULLY-SPECIFIED
:FORCE-ALL-JOINTS-BE-3DOF
:DEGREES
781
root 1.63773 16.3567 18.6836 -13.7783 75.3045 339.896
lfemur -36.7241 13.0149 -13.776
ltibia 49.6244 0 0
lfoot -21.6041 20.5198 0
ltoes 16.2608 0 0
rfemur -15.0245 -22.1019 21.5157
rtibia 51.2167 0 0
rfoot -18.0875 -32.0059 0
rtoes -25.2408 0 0
lowerback 1.11332 4.73963 -0.736689
upperback -0.88887 6.30114 -3.71937
thorax -1.19107 3.16225 -3.52572
lowerneck -5.33387 -6.52179 -0.580558
upperneck -2.41757 -8.58512 5.04116
head 0.402629 -4.22289 1.47406
lclavicle 5.83748e-15 -9.6968e-18 0
lhumerus -55.7277 -11.4984 94.7055
lradius 70.1755 0 0
lwrist 13.0467 0 0
lhand -20.9173 -4.82309 0
lfingers 7.12502 0 0
lthumb 5.4537 25.074 0
rclavicle 5.83748e-15 -9.6968e-18 0
rhumerus -30.6317 48.0515 -112.388
rradius 79.7929 0 0
rwrist 5.7128 0 0
rhand -23.4821 -20.149 0
rfingers 7.12502 0 0
rthumb 2.97685 -770.091 0
782
root 1.65143 16.3613 18.8057 -13.3221 73.2849 340.206
lfemur -36.6857 12.6771 -13.3342
ltibia 48.8078 0 0
lfoot -21.2516 20.4018 0
ltoes 16.3592 0 0
rfemur -14.4779 -21.3856 21.5296
rtibia 50.3968 0 0
rfoot -18.1661 -31.5214 0
rtoes -25.2895 0 0
lowerback 1.08118 4.7968 -0.569786
upperback -0.876182 6.37774 -3.62496
thorax -1.14543 3.20045 -3.51432
lowerneck -5.33628 -6.39355 -0.480246
upperneck -2.34366 -8.42301 4.94788
head 0.41875 -4.14268 1.43173
lclavicle 5.71142e-15 -1.93936e-17 0
lhumerus -55.6743 -11.3565 94.5923
lradius 69.7173 0 0
lwrist 13.1712 0 0
lhand -20.5524 -4.56415 0
lfingers 7.12502 0 0
lthumb 5.80539 25.3115 0
rclavicle 5.71142e-15 -1.93936e-17 0
rhumerus -30.5989 47.9758 -112.271
rradius 79.4696 0 0
rwrist 5.50172 0 0
rhand -23.0573 -20.1964 0
rfingers 7.12502 0 0
rthumb 3.38644 -770.117 0
783
root 1.66514 16.3659 18.9277 -12.8658 71.2654 340.516
lfemur -36.6473 12.3393 -12.8924
ltibia 47.9913 0 0
lfoot -20.8992 20.2839 0
ltoes 16.4576 0 0
rfemur -13.9314 -20.6694 21.5436
rtibia 49.577 0 0
rfoot -18.2448 -31.037 0
rtoes -25.3382 0 0
lowerback 1.04903 4.85397 -0.402884
upperback -0.863493 6.45434 -3.53056
thorax -1.09979 3.23864 -3.50292
lowerneck -5.3387 -6.2653 -0.379934
upperneck -2.26975 -8.2609 4.8546
head 0.43487 -4.06248 1.3894
lclavicle 5.58536e-15 -2.90904e-17 0
lhumerus -55.6208 -11.2147 94.4791
lradius 69.2591 0 0
lwrist 13.2957 0 0
lhand -20.1876 -4.3052 0
lfingers 7.12502 0 0
lthumb 6.15709 25.5491 0
rclavicle 5.58536e-15 -2.90904e-17 0
rhumerus -30.5661 47.9001 -112.153
rradius 79.1464 0 0
rwrist 5.29065 0 0
rhand -22.6326 -20.2439 0
rfingers 7.12502 0 0
rthumb 3.79603 -770.142 0
784
root 1.67885 16.3705 19.0498 -12.4096 69.2458 340.826
lfemur -36.6089 12.0015 -12.4506
ltibia 47.1747 0 0
lfoot -20.5467 20.1659 0
ltoes 16.556 0 0
rfemur -13.3849 -19.9531 21.5575
rtibia 48.7571 0 0
rfoot -18.3235 -30.5525 0
rtoes -25.3869 0 0
lowerback 1.01688 4.91114 -0.235981
upperback -0.850805 6.53094 -3.43616
thorax -1.05415 3.27684 -3.49152
lowerneck -5.34111 -6.13706 -0.279622
upperneck -2.19584 -8.09879 4.76133
head 0.450991 -3.98227 1.34707
lclavicle 5.45931e-15 -3.87872e-17 0
lhumerus -55.5673 -11.0728 94.3659
lradius 68.8009 0 0
lwrist 13.4202 0 0
lhand -19.8227 -4.04626 0
lfingers 7.12502 0 0
lthumb 6.50878 25.7866 0
rclavicle 5.45931e-15 -3.87872e-17 0
rhumerus -30.5333 47.8244 -112.035
rradius 78.8232 0 0
rwrist 5.07957 0 0
rhand -22.2078 -20.2913 0
rfingers 7.12502 0 0
rthumb 4.20562 -770.167 0
785
root 1.69255 16.3751 19.1719 -11.9533 67.2263 341.136
lfemur -36.5704 11.6637 -12.0088
ltibia 46.3581 0 0
lfoot -20.1942 20.048 0
ltoes 16.6544 0 0
rfemur -12.8384 -19.2369 21.5714
rtibia 47.9373 0 0
rfoot -18.4022 -30.0681 0
rtoes -25.4355 0 0
lowerback 0.984733 4.96831 -0.0690787
upperback -0.838116 6.60754 -3.34176
thorax -1.00851 3.31504 -3.48012
lowerneck -5.34352 -6.00881 -0.17931
upperneck -2.12193 -7.93669 4.66805
head 0.467112 -3.90207 1.30474
lclavicle 5.33325e-15 -4.8484e-17 0
lhumerus -55.5138 -10.931 94.2527
lradius 68.3428 0 0
lwrist 13.5447 0 0
lhand -19.4579 -3.78731 0
lfingers 7.12502 0 0
lthumb 6.86047 26.0241 0
rclavicle 5.33325e-15 -4.8484e-17 0
rhumerus -30.5005 47.7487 -111.918
rradius 78.5 0 0
rwrist 4.8685 0 0
rhand -21.783 -20.3388 0
rfingers 7.12502 0 0
rthumb 4.6152 -770.193 0
786
root 1.70626 16.3797 19.294 -11.497 65.2067 341.446
lfemur -36.532 11.3258 -11.567
ltibia 45.5415 0 0
lfoot -19.8417 19.93 0
ltoes 16.7527 0 0
rfemur -12.2918 -18.5207 21.5853
rtibia 47.1175 0 0
rfoot -18.4808 -29.5836 0
rtoes -25.4842 0 0
lowerback 0.952586 5.02548 0.0978238
upperback -0.825428 6.68413 -3.24735
thorax -0.962866 3.35324 -3.46872
lowerneck -5.34593 -5.88057 -0.0789983
upperneck -2.04802 -7.77458 4.57477
head 0.483233 -3.82186 1.26241
lclavicle 5.20719e-15 -5.81808e-17 0
lhumerus -55.4604 -10.7891 94.1395
lradius 67.8846 0 0
lwrist 13.6692 0 0
lhand -19.093 -3.52837 0
lfingers 7.12502 0 0
lthumb 7.21216 26.2616 0
rclavicle 5.20719e-15 -5.81808e-17 0
rhumerus -30.4677 47.673 -111.8
rradius 78.1767 0 0
rwrist 4.65742 0 0
rhand -21.3582 -20.3863 0
rfingers 7.12502 0 0
rthumb 5.02479 -770.218 0
787
root 1.71997 16.3843 19.416 -11.0408 63.1872 341.755
lfemur -36.4936 10.988 -11.1252
ltibia 44.7249 0 0
lfoot -19.4892 19.8121 0
ltoes 16.8511 0 0
rfemur -11.7453 -17.8044 21.5993
rtibia 46.2976 0 0
rfoot -18.5595 -29.0992 0
rtoes -25.5329 0 0
lowerback 0.920438 5.08265 0.264726
upperback -0.812739 6.76073 -3.15295
thorax -0.917225 3.39144 -3.45731
lowerneck -5.34835 -5.75232 0.0213137
upperneck -1.97411 -7.61247 4.48149
head 0.499353 -3.74166 1.22008
lclavicle 5.08113e-15 -6.78776e-17 0
lhumerus -55.4069 -10.6473 94.0263
lradius 67.4264 0 0
lwrist 13.7937 0 0
lhand -18.7282 -3.26942 0
lfingers 7.12502 0 0
lthumb 7.56386 26.4991 0
rclavicle 5.08113e-15 -6.78776e-17 0
rhumerus -30.4349 47.5973 -111.682
rradius 77.8535 0 0
rwrist 4.44635 0 0
rhand -20.9334 -20.4337 0
rfingers 7.12502 0 0
rthumb 5.43438 -770.243 0
788
root 1.73367 16.3889 19.5381 -10.5845 61.1676 342.065
lfemur -36.4552 10.6502 -10.6834
ltibia 43.9083 0 0
lfoot -19.1368 19.6941 0
ltoes 16.9495 0 0
rfemur -11.1988 -17.0882 21.6132
rtibia 45.4778 0 0
rfoot -18.6382 -28.6147 0
rtoes -25.5816 0 0
lowerback 0.888291 5.13982 0.431629
upperback -0.800051 6.83733 -3.05855
thorax -0.871584 3.42964 -3.44591
lowerneck -5.35076 -5.62408 0.121626
upperneck -1.9002 -7.45036 4.38821
head 0.515474 -3.66145 1.17775
lclavicle 4.95507e-15 -7.75744e-17 0
lhumerus -55.3534 -10.5055 93.9131
lradius 66.9682 0 0
lwrist 13.9182 0 0
lhand -18.3633 -3.01048 0
lfingers 7.12502 0 0
lthumb 7.91555 26.7366 0
rclavicle 4.95507e-15 -7.75744e-17 0
rhumerus -30.4021 47.5216 -111.565
rradius 77.5303 0 0
rwrist 4.23527 0 0
rhand -20.5087 -20.4812 0
rfingers 7.12502 0 0
rthumb 5.84397 -770.269 0
789
root 1.74738 16.3935 19.6602 -10.1283 59.1481 342.375
lfemur -36.4168 10.3124 -10.2416
ltibia 43.0918 0 0
lfoot -18.7843 19.5762 0
ltoes 17.0479 0 0
rfemur -10.6522 -16.372 21.6271
rtibia 44.6579 0 0
rfoot -18.7168 -28.1303 0
rtoes -25.6303 0 0
lowerback 0.856144 5.19699 0.598531
upperback -0.787362 6.91393 -2.96414
thorax -0.825944 3.46783 -3.43451
lowerneck -5.35317 -5.49583 0.221938
upperneck -1.82629 -7.28825 4.29493
head 0.531595 -3.58125 1.13542
lclavicle 4.82901e-15 -8.72712e-17 0
lhumerus -55.2999 -10.3636 93.7999
lradius 66.51 0 0
lwrist 14.0427 0 0
lhand -17.9985 -2.75153 0
lfingers 7.12502 0 0
lthumb 8.26724 26.9742 0
rclavicle 4.82901e-15 -8.72712e-17 0
rhumerus -30.3693 47.4459 -111.447
rradius 77.2071 0 0
rwrist 4.0242 0 0
rhand -20.0839 -20.5286 0
rfingers 7.12502 0 0
rthumb 6.25356 -770.294 0
790
root 1.76109 16.3981 19.7823 -9.67199 57.1285 342.685
lfemur -36.3784 9.9746 -9.79975
ltibia 42.2752 0 0
lfoot -18.4318 19.4582 0
ltoes 17.1463 0 0
rfemur -10.1057 -15.6557 21.641
rtibia 43.8381 0 0
rfoot -18.7955 -27.6458 0
rtoes -25.679 0 0
lowerback 0.823996 5.25416 0.765434
upperback -0.774673 6.99053 -2.86974
thorax -0.780303 3.50603 -3.42311
lowerneck -5.35558 -5.36759 0.32225
upperneck -1.75238 -7.12614 4.20165
head 0.547716 -3.50104 1.09309
lclavicle 4.70295e-15 -9.6968e-17 0
lhumerus -55.2465 -10.2218 93.6867
lradius 66.0518 0 0
lwrist 14.1672 0 0
lhand -17.6336 -2.49259 0
lfingers 7.12502 0 0
lthumb 8.61893 27.2117 0
rclavicle 4.70295e-15 -9.6968e-17 0
rhumerus -30.3365 47.3702 -111.329
rradius 76.8838 0 0
rwrist 3.81312 0 0
rhand -19.6591 -20.5761 0
rfingers 7.12502 0 0
rthumb 6.66315 -770.319 0
791
root 1.7748 16.4027 19.9043 -9.21573 55.109 342.995
lfemur -36.34 9.63679 -9.35795
ltibia 41.4586 0 0
lfoot -18.0793 19.3403 0
ltoes 17.2447 0 0
rfemur -9.55918 -14.9395 21.6549
rtibia 43.0183 0 0
rfoot -18.8742 -27.1614 0
rtoes -25.7277 0 0
lowerback 0.791849 5.31133 0.932336
upperback -0.761985 7.06713 -2.77534
thorax -0.734662 3.54423 -3.41171
lowerneck -5.35799 -5.23934 0.422561
upperneck -1.67846 -6.96403 4.10838
head 0.563837 -3.42084 1.05076
lclavicle 4.5769e-15 -1.06665e-16 0
lhumerus -55.193 -10.0799 93.5734
lradius 65.5936 0 0
lwrist 14.2917 0 0
lhand -17.2688 -2.23364 0
lfingers 7.12502 0 0
lthumb 8.97063 27.4492 0
rclavicle 4.5769e-15 -1.06665e-16 0
rhumerus -30.3037 47.2945 -111.212
rradius 76.5606 0 0
rwrist 3.60205 0 0
rhand -19.2343 -20.6235 0
rfingers 7.12502 0 0
rthumb 7.07274 -770.344 0
792
root 1.7885 16.4073 20.0264 -8.75947 53.0894 343.305
lfemur -36.3016 9.29898 -8.91614
ltibia 40.642 0 0
lfoot -17.7268 19.2223 0
ltoes 17.3431 0 0
rfemur -9.01265 -14.2232 21.6689
rtibia 42.1984 0 0
rfoot -18.9528 -26.6769 0
rtoes -25.7764 0 0
lowerback 0.759702 5.3685 1.09924
upperback -0.749296 7.14373 -2.68093
thorax -0.689022 3.58243 -3.40031
lowerneck -5.36041 -5.1111 0.522873
upperneck -1.60455 -6.80192 4.0151
head 0.579957 -3.34063 1.00843
lclavicle 4.45084e-15 -1.16362e-16 0
lhumerus -55.1395 -9.93809 93.4602
lradius 65.1354 0 0
lwrist 14.4162 0 0
lhand -16.9039 -1.9747 0
lfingers 7.12502 0 0
lthumb 9.32232 27.6867 0
rclavicle 4.45084e-15 -1.16362e-16 0
rhumerus -30.2709 47.2188 -111.094
rradius 76.2374 0 0
rwrist 3.39097 0 0
rhand -18.8095 -20.671 0
rfingers 7.12502 0 0
rthumb 7.48233 -770.37 0
793
root 1.80221 16.4119 20.1485 -8.30321 51.0699 343.615
lfemur -36.2631 8.96117 -8.47434
ltibia 39.8254 0 0
lfoot -17.3744 19.1044 0
ltoes 17.4415 0 0
rfemur -8.46613 -13.507 21.6828
rtibia 41.3786 0 0
rfoot -19.0315 -26.1925 0
rtoes -25.825 0 0
lowerback 0.727554 5.42567 1.26614
upperback -0.736608 7.22033 -2.58653
thorax -0.643381 3.62063 -3.38891
lowerneck -5.36282 -4.98285 0.623185
upperneck -1.53064 -6.63982 3.92182
head 0.596078 -3.26043 0.966103
lclavicle 4.32478e-15 -1.26058e-16 0
lhumerus -55.086 -9.79625 93.347
lradius 64.6773 0 0
lwrist 14.5407 0 0
lhand -16.5391 -1.71575 0
lfingers 7.12502 0 0
lthumb 9.67401 27.9242 0
rclavicle 4.32478e-15 -1.26058e-16 0
rhumerus -30.2381 47.1431 -110.976
rradius 75.9142 0 0
rwrist 3.1799 0 0
rhand -18.3848 -20.7185 0
rfingers 7.12502 0 0
rthumb 7.89191 -770.395 0
